<svg width="1419" height="328" viewBox="0 0 1419 328" fill="none" xmlns="http://www.w3.org/2000/svg">
<path d="M1071.62 297.657C1065.94 302.743 1058.94 306.633 1050.58 309.316C1042.23 311.998 1033.53 313.334 1024.47 313.334C1003.52 313.334 987.383 307.69 976.071 296.391C964.736 285.093 959.081 269.126 959.081 248.502V118.457H919.152V93.0374H959.081V44.3124H989.222V93.0374H1057.16V118.457H989.222V246.819C989.222 260.091 992.55 270.182 999.207 277.103C1005.86 284.036 1015.42 287.485 1027.87 287.485C1034.09 287.485 1040.11 286.509 1045.92 284.524C1051.7 282.55 1056.76 279.716 1060.99 276.047L1071.62 297.657Z" fill="#1E1E1C"/>
<path d="M1286.21 200.137C1286.21 178.109 1281.54 158.542 1272.19 141.461C1262.86 124.367 1249.96 111.025 1233.54 101.41C1217.12 91.8066 1198.58 87.0107 1177.93 87.0107C1157.26 87.0107 1138.65 91.8066 1122.08 101.41C1105.52 111.025 1092.49 124.449 1083.01 141.658C1073.53 158.914 1068.8 178.388 1068.8 200.137C1068.8 221.91 1073.73 241.384 1083.66 258.617C1093.57 275.849 1107.36 289.331 1125.06 299.086C1142.75 308.828 1163.07 313.705 1185.99 313.705C1203.82 313.705 1220.17 310.593 1235.03 304.381C1249.91 298.18 1262.28 289.122 1272.19 277.254L1255.21 257.769C1246.72 267.372 1236.66 274.653 1225.05 279.589C1213.44 284.535 1200.7 286.997 1186.83 286.997C1162.22 286.997 1141.83 279.867 1125.69 265.596C1109.56 251.348 1100.64 232.629 1098.93 209.462H1285.78L1286.21 200.137ZM1098.93 187.016C1100.91 164.964 1109.21 147.104 1123.79 133.402C1138.36 119.711 1156.41 112.86 1177.93 112.86C1199.72 112.86 1217.9 119.711 1232.48 133.402C1247.07 147.104 1255.34 164.964 1257.33 187.016H1098.93Z" fill="#1E1E1C"/>
<path d="M1419 91.3536V120.582L1411.78 120.164C1388.28 120.164 1369.89 127.363 1356.58 141.762C1343.27 156.185 1336.63 176.379 1336.63 202.355V313.334H1306.46V93.0374H1335.35V136.688C1342.44 121.72 1352.98 110.421 1366.98 102.792C1381 95.1508 1398.33 91.3536 1419 91.3536Z" fill="#1E1E1C"/>
<path d="M850.571 102.792C836.571 110.421 826.016 121.72 818.929 136.688V93.0375H790.056V176.344L790.021 176.402L783.958 186.203L759.123 226.3C745.519 246.528 734.149 260.777 724.99 268.603C715.854 276.558 707.568 280.448 700.155 280.448C693.533 280.448 688.529 277.429 684.817 271.193C681.116 264.899 683.269 252.811 691.241 234.684L752.815 92.3291H745.949L724.385 126.249C721.533 117.005 716.285 109.051 708.429 102.327C700.702 95.6038 691.555 92.3291 680.988 92.3291C663.124 92.3291 645.318 98.623 627.269 111.141C609.288 123.845 593.333 139.208 579.182 157.59C564.902 175.961 553.463 195.643 544.443 216.487C542.896 220.192 541.476 223.884 540.172 227.403C526.452 248.247 514.221 262.309 503.211 269.776C492.214 277.173 482.508 281.005 473.919 281.005C467.367 281.005 462.352 277.858 458.651 271.622C454.938 265.456 457.231 253.252 465.505 235.241L523.612 103.5L526.335 96.8927L489.188 97.0785C480.227 119.409 470.393 139.823 459.943 158.322C449.504 176.832 436.644 195.945 421.678 215.744C411.798 228.704 403.384 239.247 396.401 247.26C389.547 255.342 383.425 261.508 378.107 265.886C372.975 270.333 368.098 273.167 363.699 274.584C359.382 276.012 354.866 276.743 350.421 276.743C341.576 276.743 335.827 273.295 333.104 266.629C330.451 259.79 331.998 250.105 337.678 237.273L366.12 175.844C376.815 151.598 383.542 131.683 386.265 116.134C388.988 100.597 383.542 92.7588 369.821 92.7588C357.706 92.7588 343.555 99.61 327.425 113.429C314.135 124.716 300.158 140.497 285.879 161.039V157.59C285.879 136.804 282.853 116.877 276.859 97.8798C270.982 78.9518 262.021 62.2882 250.151 47.738C238.292 33.2459 223.454 21.5291 205.59 13.0173C187.785 4.31976 166.895 0 143.224 0C119.367 0 98.5359 4.31976 80.5441 13.0173C62.5523 21.5291 47.6561 33.2459 35.6693 47.738C23.8572 62.2882 14.9544 78.9518 8.96098 97.8798C2.9676 116.877 0 136.804 0 157.59C0 178.562 2.9676 198.477 8.96098 217.474C14.9544 236.286 23.8572 252.938 35.6693 267.314C47.6561 281.864 62.5523 293.279 80.5441 301.977C98.5359 310.489 119.367 314.925 143.224 314.925C174.925 314.925 201.075 307.528 221.778 292.85L268.888 328L283.283 310.233L240.015 277.614C255.283 262.936 266.723 245.112 274.45 224.442C279.699 210.077 283.167 194.958 284.715 179.108L285.017 179.293C298.552 158.879 309.992 144.758 319.139 136.92C328.286 128.966 336.688 124.96 343.985 124.96C350.537 124.96 355.541 128.106 359.254 134.4C362.966 140.497 360.86 152.771 352.946 170.724L326.121 229.691C312.831 259.046 307.024 280.262 308.572 293.395C310.108 306.657 316.974 313.194 329.147 313.194C334.279 313.194 339.726 312.207 345.719 310.233C351.713 308.201 358.265 304.497 365.375 298.946C372.66 293.395 380.83 285.871 390.094 276.012C399.252 266.327 409.691 253.612 421.247 238.133C428.114 229.133 434.107 220.865 439.111 213.584C444.243 206.187 449.073 199.22 453.519 192.682C458.092 185.959 462.666 179.108 467.239 172.024C471.627 165.045 476.631 157.033 482.077 148.335H488.385L452.215 230.12C441.52 254.355 434.666 274.282 431.942 289.819C429.103 305.368 434.351 313.194 448.072 313.194C461.362 313.194 476.945 306.541 494.937 293.279C507.599 284.024 520.33 270.891 532.887 254.355C531.77 260.777 531.211 267.059 531.211 272.865C531.211 286.126 534.063 296.113 539.928 302.65C545.619 309.374 553.777 312.649 564.158 312.649C582.021 312.649 601.189 303.394 621.589 284.582C641.979 265.77 662.251 239.549 682.722 205.944H688.715L678.02 229.563C667.267 253.925 660.587 273.91 657.864 289.389C655.152 304.938 660.715 312.649 674.25 312.649C686.423 312.649 700.586 305.797 716.715 292.107C732.845 278.416 749.848 258.059 767.653 230.863L783.958 205.2V205.189L790.021 195.643L790.056 195.342V313.334H820.209V202.355C820.209 176.379 826.866 156.185 840.167 141.763C853.469 127.363 871.868 120.164 895.365 120.164L902.58 120.582V91.3537C881.912 91.3537 864.583 95.1509 850.571 102.792ZM247.87 214.455C241.749 232.837 231.926 248.375 218.322 261.079L174.192 227.589L159.354 245.785L199.225 275.884C183.339 285.685 164.603 290.69 143.224 290.69C123.068 290.69 105.821 286.858 91.3554 279.275C76.9597 271.622 65.0893 261.508 55.9421 248.932C46.6669 236.414 39.8124 222.166 35.5413 206.187C31.0958 190.209 28.9893 173.987 28.9893 157.59C28.9893 140.938 31.0958 124.716 35.5413 108.865C39.8124 93.0723 46.6669 78.9518 55.9421 66.306C65.0893 53.7183 76.9597 43.604 91.3554 36.0793C105.821 28.3688 123.068 24.6761 143.224 24.6761C163.183 24.6761 180.488 28.3688 194.767 36.0793C209.047 43.604 220.731 53.7183 230.006 66.306C239.153 78.9518 246.008 93.0723 250.465 108.865C254.725 124.716 257.017 140.938 257.017 157.59C257.017 177.133 253.863 196.073 247.87 214.455ZM630.422 256.085C609.288 278.288 592.588 289.389 580.474 289.389C572.444 289.389 566.881 286.672 563.599 281.563C560.329 276.314 558.781 268.046 558.781 256.759C558.781 243.811 561.877 228.82 568.301 212.052C574.608 195.214 582.894 179.421 593.147 164.43C603.283 149.508 614.851 136.804 627.699 126.376C640.559 116.134 653.605 111.025 666.581 111.025C679.01 111.025 687.842 115.275 693.103 123.729C698.421 132.24 700.155 141.484 698.421 151.598C674.436 199.092 651.754 233.999 630.422 256.085Z" fill="#1E1E1C"/>
</svg> 
